<svg width="28" height="28" viewBox="0 0 28 28" fill="none" xmlns="http://www.w3.org/2000/svg">
<path d="M2.3335 2.33334H3.85735C4.14438 2.33334 4.28789 2.33334 4.40338 2.38612C4.50515 2.43264 4.5914 2.50744 4.65184 2.60161C4.72042 2.70848 4.74072 2.85055 4.78131 3.13468L5.3335 7.00001M5.3335 7.00001L6.5607 16.02C6.71644 17.1646 6.7943 17.7369 7.06795 18.1677C7.30907 18.5474 7.65476 18.8492 8.06341 19.0369C8.52717 19.25 9.10476 19.25 10.26 19.25H20.2442C21.3438 19.25 21.8936 19.25 22.3429 19.0522C22.7391 18.8777 23.079 18.5965 23.3245 18.2399C23.6029 17.8356 23.7058 17.2955 23.9115 16.2152L25.4558 8.10798C25.5282 7.72779 25.5644 7.53769 25.5119 7.38909C25.4659 7.25874 25.3751 7.14898 25.2556 7.07936C25.1195 7.00001 24.926 7.00001 24.5389 7.00001H5.3335ZM11.6668 24.5C11.6668 25.1443 11.1445 25.6667 10.5002 25.6667C9.85583 25.6667 9.3335 25.1443 9.3335 24.5C9.3335 23.8557 9.85583 23.3333 10.5002 23.3333C11.1445 23.3333 11.6668 23.8557 11.6668 24.5ZM21.0002 24.5C21.0002 25.1443 20.4778 25.6667 19.8335 25.6667C19.1892 25.6667 18.6668 25.1443 18.6668 24.5C18.6668 23.8557 19.1892 23.3333 19.8335 23.3333C20.4778 23.3333 21.0002 23.8557 21.0002 24.5Z" stroke="white" stroke-width="2" stroke-linecap="round" stroke-linejoin="round"/>
</svg>
